<svg xmlns="http://www.w3.org/2000/svg" width="512" height="512" viewBox="0 0 512 512"><g fill="none" fill-rule="evenodd"><circle cx="256" cy="256" r="256" fill="#000"/><path fill="#FFA600" d="M237.485849,143.706035 L274.574897,114.728896 C278.964264,111.299546 285.302587,112.077794 288.731937,116.467162 C292.161287,120.856529 291.383039,127.194852 286.993671,130.624202 L249.904624,159.601341 C245.515256,163.030691 239.176933,162.252443 235.747583,157.863076 C232.318234,153.473708 233.096482,147.135385 237.485849,143.706035 Z M195.338498,124.891968 L202.434781,74.3992888 C203.166934,69.1897533 207.983624,65.5601173 213.193159,66.2922697 C218.402694,67.0244222 222.032331,71.8411119 221.300178,77.0506474 L214.203895,127.543327 C213.471742,132.752862 208.655053,136.382498 203.445517,135.650346 C198.235982,134.918193 194.606346,130.101504 195.338498,124.891968 Z M136.811432,96.1596946 L167.13669,133.60827 C170.739496,138.057364 170.053443,144.584719 165.604349,148.187524 C161.155254,151.79033 154.627899,151.104277 151.025094,146.655183 L120.699836,109.206608 C117.09703,104.757514 117.783083,98.2301588 122.232177,94.6273532 C126.681272,91.0245476 133.208626,91.7106002 136.811432,96.1596946 Z M90.7450102,165.376594 L137.460859,171.112579 C143.143101,171.810271 147.183878,176.982229 146.486186,182.664471 C145.788495,188.346713 140.616537,192.38749 134.934294,191.689798 L88.2184454,185.953813 C82.5362032,185.256122 78.4954266,180.084163 79.1931182,174.401921 C79.8908098,168.719679 85.062768,164.678902 90.7450102,165.376594 Z M114.514816,247.013091 L144.495408,220.018445 C148.634864,216.291262 155.012035,216.625475 158.739218,220.764931 C162.466401,224.904387 162.132187,231.281558 157.992731,235.008741 L128.012139,262.003387 C123.872683,265.73057 117.495513,265.396357 113.76833,261.256901 C110.041147,257.117445 110.37536,250.740274 114.514816,247.013091 Z M187.262634,178.015234 L454.130028,322.693579 L361.038751,353.120973 C344.939372,380.851342 339.512383,412.760252 324.564345,445.198383 L187.262634,178.015234 Z"/></g></svg>