<svg xmlns="http://www.w3.org/2000/svg" width="512" height="512" viewBox="0 0 512 512"><g fill="none" fill-rule="evenodd"><circle cx="256" cy="256" r="256" fill="#000"/><path fill="#FFA600" d="M388.803435,92.3269839 C409.606195,97.8369565 422.005438,111.107151 426,132.136405 L426,361.113221 C422.080412,384.694927 408.32582,398.546281 384.73506,402.66612 C360.518353,402.859646 336.302226,403.053753 312.085519,403.24728 L270.239383,433.46757 C265.16147,434.960569 261.577814,433.313563 259.487251,428.527715 C260.069028,421.346328 260.940823,414.178307 262.102634,407.024816 C262.418224,406.989946 262.611762,406.79642 262.68383,406.443656 C219.095849,405.862497 175.506124,405.668971 131.914656,405.862497 C125.319821,404.110882 122.704437,399.84924 124.068505,393.07699 C125.365735,390.036945 127.593461,388.002887 130.752263,386.974815 C145.281009,386.684236 159.810917,386.587182 174.341988,386.684236 L174.341988,354.139308 C136.807748,348.400939 110.169776,328.253885 94.4274921,293.698727 C89.569272,282.996095 86.8568287,271.759958 86.2907435,259.99148 C85.9030855,250.886455 85.9030855,241.782011 86.2907435,232.676987 C89.9987761,225.735618 95.3266029,224.089194 102.273643,227.737131 C103.749881,229.018588 105.009334,230.471486 106.051419,232.095827 C106.666906,243.125071 107.248102,254.1671 107.795008,265.221915 C112.924647,293.797524 128.520469,314.428684 154.581313,327.115394 C175.893782,335.613107 197.010388,335.129001 217.931713,325.662496 C218.701798,318.394516 218.701798,311.032969 217.931713,303.578437 C217.578927,303.650501 217.385388,303.844027 217.350517,304.159597 C200.436541,315.017398 182.419455,317.051456 163.299258,310.261771 C141.520669,299.904928 128.830828,282.760725 125.230898,258.829161 C124.84324,223.766069 124.84324,188.702396 125.230898,153.639304 C129.861289,123.157492 146.813042,103.398071 176.085577,94.3610419 C177.62691,94.4133463 178.982841,94.0262941 180.153951,93.1987231 L181.316344,93.1987231 C184.172343,93.2789231 186.884786,92.8918709 189.453093,92.0364042 C255.903594,91.9393506 322.353514,92.0364042 388.803435,92.3269839 Z M235.367603,108.308868 L235.367603,386.684236 C248.967016,386.411672 262.52807,386.702252 276.051346,387.555975 C278.212815,388.289979 279.665806,389.742878 280.410319,391.914671 C280.537019,396.323927 280.052883,400.682623 278.957328,404.990758 C279.150866,405.668971 279.344986,406.346603 279.538524,407.024816 L306.854752,386.974815 C333.008587,386.781289 359.162422,386.587182 385.316257,386.393656 C398.647738,383.329784 406.688008,375.097079 409.435905,361.69438 C409.823562,285.174861 409.823562,208.655924 409.435905,132.136405 C406.542128,118.975468 398.502439,111.129816 385.316257,108.599448 C335.333953,108.308868 285.351069,108.211815 235.367603,108.308868 Z M218.512909,348.908873 C210.823682,351.220144 203.074591,352.963622 195.265056,354.139308 L195.265056,386.684236 L218.512909,386.684236 L218.512909,348.908873 Z M358.895009,326.330354 C366.241958,329.850314 367.891297,335.232711 363.841862,342.476958 C362.440448,343.918996 360.791691,344.995241 358.895009,345.706279 C327.661747,346.097907 296.429066,346.097907 265.195803,345.706279 C258.089795,342.486352 256.246656,337.300063 259.666968,330.146824 C261.061399,328.639612 262.516355,327.269793 264.031838,326.036779 C295.653283,325.938725 327.274728,326.036779 358.895009,326.330354 Z M376.842539,270.320932 C383.363862,272.198701 385.975177,276.476728 384.676483,283.155014 C383.133486,286.572872 380.522171,288.75923 376.842539,289.714656 C340.090896,290.095115 303.338673,290.095115 266.587029,289.714656 C260.468429,287.479814 258.050932,283.201787 259.333378,276.880574 C259.960093,275.456847 260.734203,274.125524 261.654546,272.887749 C263.09309,271.853036 264.543821,270.902174 266.006737,270.03573 C302.952778,269.940473 339.897659,270.03573 376.842539,270.320932 Z M383.809916,220.77371 C384.974656,230.313843 380.786735,234.692997 371.244983,233.911172 C365.115634,231.330391 362.87557,226.756218 364.524206,220.189823 C366.09979,217.935434 367.950634,215.989338 370.076153,214.35095 C376.344593,213.08917 380.922903,215.229701 383.809916,220.77371 Z M339.903203,213.320932 C347.551011,216.040046 349.780895,221.078422 346.593435,228.436628 C344.962764,230.801522 342.732881,232.227531 339.903203,232.714656 C315.275587,233.095115 290.647388,233.095115 266.019771,232.714656 C259.181773,229.471341 257.339341,224.432965 260.493058,217.598959 C262.153981,215.482192 264.190138,213.961496 266.601531,213.03573 C291.036003,212.940473 315.469894,213.03573 339.903203,213.320932 Z M377.86732,157.330354 C383.834084,159.721813 386.057122,164.125432 384.537012,170.541212 C383.242512,173.612589 381.019474,175.667612 377.86732,176.706279 C340.36219,177.097907 302.857641,177.097907 265.352511,176.706279 C259.113159,173.078871 257.470095,167.892582 260.422738,161.146824 C261.838453,159.412385 263.482097,158.042566 265.352511,157.036779 C302.858221,156.938725 340.36277,157.036779 377.86732,157.330354 Z"/></g></svg>