<svg xmlns="http://www.w3.org/2000/svg" width="261" height="54" viewBox="0 0 261 54"><g fill="#FFF" transform="translate(0 2)"><path d="M89.3955003,32.0538778 C87.597987,32.0538778 86.6856128,31.1437886 86.6856128,29.3905285 L86.6856128,16.8500343 L95.1012433,16.8500343 L95.1012433,9.91729581 L86.6856128,9.91729581 L86.6856128,0 L79.0870337,2.03431709 L79.0870337,9.91729581 L73,9.91729581 L73,16.8500343 L79.0870337,16.8500343 L79.0870337,30.0329444 C79.0870337,35.4265614 82.9407934,39 88.6465364,39 C90.9206631,39 92.9905269,38.678792 96,37.8757721 L94.1480166,31.2107069 C92.5411486,31.7326699 90.9070456,32.0538778 89.3955003,32.0538778 Z"/><rect width="7" height="7" x="100" y="1"/><path d="M19.5 0C8.74553571 0 0 8.74553571 0 19.5 0 30.2544643 8.74553571 39 19.5 39 30.2544643 39 39 30.2544643 39 19.5 39 8.74553571 30.2410714 0 19.5 0ZM19.5 31.6607143C12.8839286 31.6607143 7.51339286 26.2767857 7.51339286 19.6741071 7.51339286 13.0714286 12.8973214 7.6875 19.5 7.6875 26.1026786 7.6875 31.4866071 13.0714286 31.4866071 19.6741071 31.4866071 26.2767857 26.1026786 31.6607143 19.5 31.6607143ZM211.587313 26.8247637C210.444856 29.6333999 207.641851 31.5685368 204.42703 31.4072754 200.667549 31.2191371 197.572287 28.0207858 197.466012 24.2177043 197.346453 20.0114692 200.680833 16.5577874 204.812277 16.5577874 207.748126 16.5577874 210.272159 18.304786 211.454469 20.8312147L218.774165 18.7616933C217.445727 15.2005039 214.828703 12.2843601 211.494323 10.6045538 209.289115 9.47572394 206.765082 8.88443211 204.09492 9.01881662 196.257133 9.39509324 189.960335 16.1411955 190 24.0833198 190.040041 32.3345285 196.668949 39 204.825561 39 206.924494 39 208.917152 38.5565311 210.710544 37.7636625 214.629437 36.0838562 217.671562 32.737682 219 28.6120777L211.587313 26.8247637ZM180.5 11.6478495C178.456989 10.0080645 175.728495 9 173 9 164.72043 9 158 15.7204301 158 24 158 32.2795699 164.72043 39 173 39 175.728495 39 178.376344 38.0591398 180.5 36.3790323L180.5 38.1935484 188 38.1935484 188 9.79301075 180.5 9.79301075 180.5 11.6478495ZM173 31.4731183C168.873656 31.4731183 165.526882 28.1263441 165.526882 24 165.526882 19.8736559 168.873656 16.5268817 173 16.5268817 177.126344 16.5268817 180.473118 19.8736559 180.473118 24 180.473118 28.1397849 177.126344 31.4731183 173 31.4731183ZM156.0121 16.7804878C155.444128 16.6069949 154.538078 16.5269213 154.037722 16.5269213 149.913167 16.5269213 146.545907 19.849977 146.545907 23.9203866L146.545907 38 139 38 139 9.80073631 145.73452 9.80073631 146.545907 9.80073631 146.545907 11.6290842C148.4121 10.0676484 151.30605 9 154.037722 9 155.403559 9 156.742349 9.18683847 158 9.5204786L156.0121 16.7804878Z"/><polygon points="235.023 27.278 230.686 31.793 230.686 38 223 38 223 0 230.686 0 230.686 20.965 241.281 9.856 251.863 9.856 240.416 21.684 252 38 242.461 38"/><path d="M58,9 C55.2715054,9 52.4623656,9.99934811 50.5,11.6968709 L50.5,9.82138201 L43,9.82138201 L43,51 L50.5,51 L50.5,36.8859192 C52.4758065,38.6655802 55.2715054,39.5554107 58,39.5554107 C66.2795699,39.5554107 73,32.7105606 73,24.2777053 C73,15.8448501 66.2795699,9 58,9 Z M58,31.9028683 C53.8736559,31.9028683 50.5134409,28.494133 50.5134409,24.2777053 C50.5134409,20.0612777 53.8602151,16.6525424 58,16.6525424 C62.1397849,16.6525424 65.4865591,20.0612777 65.4865591,24.2777053 C65.4865591,28.494133 62.1263441,31.9028683 58,31.9028683 Z"/><polygon points="110 0 110 7.459 119.982 7.459 119.982 38 127.485 38 127.485 7.459 137.963 7.459 140 0"/><rect width="7" height="28" x="100" y="10"/></g></svg>