<svg xmlns="http://www.w3.org/2000/svg" width="16" height="16" viewBox="0 0 16 16"><path fill="#FFF" fill-opacity=".6" fill-rule="evenodd" d="M5,10.5 C6.20932545,10.5 7.21809967,11.3584425 7.44990271,12.4990548 L15.5,12.4997446 L15.5,13.4994892 L7.44990271,13.4996682 C7.21809967,14.6402804 6.20932545,15.498723 5,15.498723 C3.79067455,15.498723 2.78190033,14.6402804 2.55009729,13.4996682 L0.5,13.4994892 L0.5,12.4997446 L2.55009729,12.4990548 C2.78190033,11.3584425 3.79067455,10.5 5,10.5 Z M5.00012774,11.5 C4.17177116,11.5 3.50025547,12.1713442 3.50025547,12.9994892 C3.50025547,13.8276342 4.17177116,14.4989784 5.00012774,14.4989784 C5.82848431,14.4989784 6.5,13.8276342 6.5,12.9994892 C6.5,12.1713442 5.82848431,11.5 5.00012774,11.5 Z M11,5.5 C12.2093254,5.5 13.2180997,6.35844252 13.4499027,7.49905481 L15.5,7.49974459 L15.5,8.49948919 L13.4499027,8.49966816 C13.2180997,9.64028044 12.2093254,10.498723 11,10.498723 C9.79067455,10.498723 8.78190033,9.64028044 8.55009729,8.49966816 L0.5,8.49948919 L0.5,7.49974459 L8.55009729,7.49905481 C8.78190033,6.35844252 9.79067455,5.5 11,5.5 Z M11.0001277,6.5 C10.1717712,6.5 9.50025547,7.17134418 9.50025547,7.99948919 C9.50025547,8.8276342 10.1717712,9.49897838 11.0001277,9.49897838 C11.8284843,9.49897838 12.5,8.8276342 12.5,7.99948919 C12.5,7.17134418 11.8284843,6.5 11.0001277,6.5 Z M6,0.5 C7.20932545,0.5 8.21809967,1.35844252 8.44990271,2.49905481 L15.5,2.49974459 L15.5,3.49948919 L8.44990271,3.49966816 C8.21809967,4.64028044 7.20932545,5.49872297 6,5.49872297 C4.79067455,5.49872297 3.78190033,4.64028044 3.55009729,3.49966816 L0.5,3.49948919 L0.5,2.49974459 L3.55009729,2.49905481 C3.78190033,1.35844252 4.79067455,0.5 6,0.5 Z M6.00012774,1.5 C5.17177116,1.5 4.50025547,2.17134418 4.50025547,2.99948919 C4.50025547,3.8276342 5.17177116,4.49897838 6.00012774,4.49897838 C6.82848431,4.49897838 7.5,3.8276342 7.5,2.99948919 C7.5,2.17134418 6.82848431,1.5 6.00012774,1.5 Z"/></svg>